# xmcd
#
# Track frame offsets: 
#        150
#        16683
#        31975
#        47754
#        61710
#        75979
#        88524
#        110249
#        132201
#        148160
#        164430
#        178637
#        197928
#        216843
#        230624
#        243768
#        254644
#        266441
#        278558
#        290773
#
# Disc length: 4145 seconds
#
# Revision: 0
# Processed by: cddbd v1.5.2PL0 Copyright (c) Steve Scherf et al.
# Submitted via: ExactAudioCopy v1.0b3
#
DISCID=1f102f14
DTITLE=Różni Wyk.-(TPO)- - The Best Country... Ever !
DYEAR=2013
DGENRE=
TTITLE0=Alan Jackson - Long Way To Go
TTITLE1=Eddy Raven - In A Letter To You
TTITLE2=Tanya Tucker - Down To My Last Teardrop
TTITLE3=Jo-El Sonnier - All American Saturday Night
TTITLE4=Eddie Rabbitt - 747
TTITLE5=Eric Church - Hell On The Heart
TTITLE6=Stevie Wariner - Holes In The Floor Of Heaven
TTITLE7=Deana Carter - Strawberry Wine
TTITLE8=Crystal Gayle - I'll Get Over You
TTITLE9=Nitty Gritty Dirt Band - Mr. Bojangles
TTITLE10=Suzzy Bogguss - Drive South
TTITLE11=Dierks Bentley - Come A Little Closer
TTITLE12=Juice Newton - Angel Of The Morning
TTITLE13=Willie Nelson - Funny How The Time Slips Away
TTITLE14=Glen Campbell - Gentle On My Mind
TTITLE15=Mel McDaniel - Real Good Feel Good Song
TTITLE16=Skip Ewing - Homegrown Love
TTITLE17=New Grass Revival - Callin? Baton Rouge
TTITLE18=Asleep At The Wheel - Big Ball?S In Cowtown 
TTITLE19=Michael Martin Murphey - The West Is Going To Get Wilder
EXTD=
EXTT0=
EXTT1=
EXTT2=
EXTT3=
EXTT4=
EXTT5=
EXTT6=
EXTT7=
EXTT8=
EXTT9=
EXTT10=
EXTT11=
EXTT12=
EXTT13=
EXTT14=
EXTT15=
EXTT16=
EXTT17=
EXTT18=
EXTT19=
PLAYORDER=
